Coordinates
version=1
nRows=8
nColumns=40
inDegrees=yes

Units are S.I. units (second, meters, Newtons, ...)
Angles are in degrees.

endheader
time	pelvis_tilt	pelvis_list	pelvis_rotation	pelvis_tx	pelvis_ty	pelvis_tz	hip_flexion_r	hip_adduction_r	hip_rotation_r	knee_angle_r	knee_angle_r_beta	ankle_angle_r	subtalar_angle_r	mtp_angle_r	hip_flexion_l	hip_adduction_l	hip_rotation_l	knee_angle_l	knee_angle_l_beta	ankle_angle_l	subtalar_angle_l	mtp_angle_l	lumbar_extension	lumbar_bending	lumbar_rotation	arm_flex_r	arm_add_r	arm_rot_r	elbow_flex_r	pro_sup_r	wrist_flex_r	wrist_dev_r	arm_flex_l	arm_add_l	arm_rot_l	elbow_flex_l	pro_sup_l	wrist_flex_l	wrist_dev_l
     31.07500000	     -4.31950307	     -3.42461025	     -1.73962239	      1.00095805	      0.92849835	      0.42319079	     25.67286040	     -4.18506731	    -10.73211144	     15.63203567	     15.63203567	      0.90041117	     -0.97713912	      5.44977311	      5.87534877	     -5.34616096	    -14.40658723	     15.96414104	     15.96414104	     15.09251603	     -4.84525798	     -6.97170134	     -9.90002295	      4.45381046	      0.07974444	     -7.61955801	    -11.50655460	     -5.33861836	     30.48670688	     46.39523886	      0.00000000	      0.00000000	     16.14261790	    -16.76187430	     -6.88417347	     68.14531371	     46.98762479	      0.00000000	      0.00000000
     31.08850000	     -4.46448736	     -3.14044439	     -1.84317705	      1.00199347	      0.92745967	      0.42512379	     24.97848685	     -4.08588963	    -11.50170209	     13.55560246	     13.55560246	      0.80994016	     -0.04283021	      6.30399546	      5.27895414	     -5.11092425	    -14.69925982	     15.43878192	     15.43878192	     15.27831265	     -4.45748248	     -7.16050196	     -9.69457014	      4.12331111	      0.04107946	     -7.46375184	    -11.48746413	     -5.23731907	     30.66215477	     46.37844903	      0.00000000	      0.00000000	     15.92482089	    -16.82713044	     -6.86626629	     67.55802826	     46.98132920	      0.00000000	      0.00000000
     31.10200000	     -4.54740203	     -2.85154935	     -1.95306418	      1.00328007	      0.92654779	      0.42715414	     24.44312199	     -4.05823481	    -12.23425148	     12.37572505	     12.37572505	      0.76153768	      0.52236351	      6.76871327	      4.55525553	     -4.85587791	    -15.01889601	     14.83026180	     14.83026180	     15.45742495	     -4.03197325	     -7.32396026	     -9.51268374	      3.83301685	      0.02545087	     -7.17773698	    -11.51434041	     -5.16007765	     30.85623658	     46.36441005	      0.00000000	      0.00000000	     15.65516243	    -16.87749647	     -6.87228096	     66.77114972	     46.97213402	      0.00000000	      0.00000000
     31.11550000	     -4.48063832	     -2.65727725	     -2.05547460	      1.00491196	      0.92590516	      0.42936597	     23.95194925	     -4.02148216	    -12.98523531	     12.03951175	     12.03951175	      0.78802193	      0.79139735	      6.72580593	      3.53448403	     -4.67319127	    -15.33507063	     14.00354632	     14.00354632	     15.59763485	     -3.50966364	     -7.44492669	     -9.45627919	      3.64723223	     -0.05432845	     -6.75401119	    -11.64386403	     -5.07751006	     31.07856493	     46.34938299	      0.00000000	      0.00000000	     15.37984616	    -16.90379934	     -6.91635620	     65.51886953	     46.95941186	      0.00000000	      0.00000000
     31.12900000	     -4.44547592	     -2.45383230	     -2.15336008	      1.00667541	      0.92512265	      0.43168670	     23.75904541	     -4.07304461	    -13.47988108	     12.50810051	     12.50810051	      0.82009774	      0.48195804	      6.04057928	      2.61837572	     -4.48803892	    -15.54514632	     13.32118020	     13.32118020	     15.77747164	     -3.20024698	     -7.49141450	     -9.33616112	      3.46277530	     -0.04190093	     -6.29768894	    -11.79439860	     -5.01522969	     31.27223018	     46.33738127	      0.00000000	      0.00000000	     15.11368848	    -16.83368706	     -6.97803230	     64.19510885	     46.94640196	      0.00000000	      0.00000000
     31.14250000	     -4.40514039	     -2.44256891	     -2.22591819	      1.00860987	      0.92435343	      0.43416558	     23.58238453	     -3.96622819	    -13.84619100	     13.28259157	     13.28259157	      0.96787370	     -0.07736437	      5.40265594	      1.82786509	     -4.55433238	    -15.61175937	     12.92459556	     12.92459556	     16.03722432	     -3.11923127	     -7.46011337	     -9.22729419	      3.53513731	      0.07493183	     -5.80407829	    -12.02824942	     -5.03589049	     31.45843320	     46.33392291	      0.00000000	      0.00000000	     14.53160658	    -16.57524854	     -6.92268644	     63.32992233	     46.92648457	      0.00000000	      0.00000000
     31.15600000	     -4.22926707	     -2.11080864	     -2.24244032	      1.01088293	      0.92355763	      0.43663301	     23.36651137	     -4.21015737	    -13.66268250	     14.22721319	     14.22721319	     -0.68397003	     -1.83919523	     -1.06899073	      0.66131668	     -4.16381463	    -15.51723773	     12.06403581	     12.06403581	     16.25234168	     -3.04590574	     -6.97803311	     -9.10063519	      3.23737414	      0.34019714	     -5.52095347	    -12.18023356	     -5.17702360	     31.96841830	     46.29142931	      0.00000000	      0.00000000	     15.16487356	    -16.19188631	     -7.08164475	     59.59501747	     46.90436505	      0.00000000	      0.00000000
     31.16950000	     -3.98585079	     -2.08996783	     -2.27668546	      1.01310674	      0.92291486	      0.43931955	     23.36211490	     -4.24694389	    -13.56977323	     15.95847995	     15.95847995	     -0.10295530	     -2.84656565	     -1.80183956	     -0.29721676	     -4.23728022	    -15.53495850	     11.79069154	     11.79069154	     16.57710519	     -3.01664855	     -6.77169327	     -9.19096735	      3.28932426	      0.26418035	     -4.74753475	    -12.54875949	     -5.30933816	     32.28493192	     46.29160055	      0.00000000	      0.00000000	     14.44767381	    -16.25270786	     -7.08077742	     58.59627379	     46.88570683	      0.00000000	      0.00000000
